# AST/ASF file generated using VICON BodyLanguage
# -----------------------------------------------
:version 1.10
:name VICON
:units
  mass 1.0
  length 0.45
  angle deg
:documentation
   .ast/.asf automatically generated from VICON data using
   VICON BodyBuilder and BodyLanguage model FoxedUp or BRILLIANT.MOD
:root
   order TX TY TZ RX RY RZ
   axis XYZ
   position 0 0 0  
   orientation 0 0 0 
:bonedata
  begin
     id 1 
     name lhipjoint
     direction 0.612567 -0.751349 0.245431 
     length 2.42285 
     axis 0 0 0  XYZ
  end
  begin
     id 2 
     name lfemur
     direction 0.34202 -0.939693 0  
     length 7.11304  
     axis 0 0 20  XYZ
    dof rx ry rz
    limits (-160.0 20.0)
           (-70.0 70.0)
           (-60.0 70.0)
  end
  begin
     id 3 
     name ltibia
     direction 0.34202 -0.939693 0   
     length 7.84529   
     axis 0 0 20   XYZ
    dof rx
    limits (-10.0 170.0)
  end
  begin
     id 4 
     name lfoot
     direction 0.0779239 -0.214094 0.9737   
     length 1.97176   
     axis -90 7.62852e-016 20   XYZ
    dof rx rz
    limits (-45.0 90.0)
           (-70.0 20.0)
  end
  begin
     id 5 
     name ltoes
     direction 1.53565e-011 -4.21709e-011 1   
     length 0.993197   
     axis -90 7.62852e-016 20   XYZ
    dof rx
    limits (-90.0 20.0)
  end
  begin
     id 6 
     name rhipjoint
     direction -0.665722 -0.709315 0.231701   
     length 2.56642  
     axis 0 0 0  XYZ 
  end
  begin
     id 7 
     name rfemur
     direction -0.34202 -0.939693 0   
     length 7.32108   
     axis 0 0 -20   XYZ
    dof rx ry rz
    limits (-160.0 20.0)
           (-70.0 70.0)
           (-70.0 60.0)
  end
  begin
     id 8 
     name rtibia
     direction -0.34202 -0.939693 0   
     length 7.81254   
     axis 0 0 -20   XYZ
    dof rx
    limits (-10.0 170.0)
 end
 begin
     id 9 
     name rfoot
     direction -0.0832806 -0.228812 0.969902   
     length 2.08278  
     axis -90 -7.62852e-016 -20   XYZ
    dof rx rz
    limits (-45.0 90.0)
           (-20.0 70.0)
  end
  begin
     id 10 
     name rtoes
     direction -1.53589e-011 -4.22086e-011 1   
     length 1.04609   
     axis -90 -7.62852e-016 -20   XYZ
    dof rx
    limits (-90.0 20.0)
  end
  begin
     id 11 
     name lowerback
     direction -0.00506013 0.988403 -0.151766   
     length 2.01978   
     axis 0 0 0   XYZ
    dof rx ry rz
    limits (-20.0 45.0)
           (-30.0 30.0)
           (-30.0 30.0)
  end
  begin
     id 12 
     name upperback
     direction -0.00836389 0.99968 0.0238859   
     length 2.01276   
     axis 0 0 0   XYZ
    dof rx ry rz
    limits (-20.0 45.0)
           (-30.0 30.0)
           (-30.0 30.0)
  end
  begin
     id 13 
     name thorax
     direction -0.00684136 0.995386 0.0957043   
     length 2.07303   
     axis 0 0 0   XYZ
    dof rx ry rz
    limits (-20.0 45.0)
           (-30.0 30.0)
           (-30.0 30.0)
  end
  begin
     id 14 
     name lowerneck
     direction -0.0161045 0.999661 0.0204485   
     length 1.91243   
     axis 0 0 0   XYZ
    dof rx ry rz
    limits (-20.0 45.0)
           (-30.0 30.0)
           (-30.0 30.0)
  end
  begin
     id 15 
     name upperneck
     direction 0.0553583 0.990946 -0.122319   
     length 1.91574   
     axis 0 0 0   XYZ
    dof rx ry rz
    limits (-20.0 45.0)
           (-30.0 30.0)
           (-30.0 30.0)
  end
  begin
     id 16
     name head
     direction 0.0180273 0.998839 -0.0446756  
     length 1.92693  
     axis 0 0 0   XYZ
    dof rx ry rz
    limits (-20.0 45.0)
           (-30.0 30.0)
           (-30.0 30.0)
  end
  begin
     id 17 
     name lclavicle
     direction 0.945646 0.319323 -0.0615358  
     length 4.0076  
     axis 0 0 0   XYZ
    dof ry rz
    limits (-20.0 10.0)
           (0.0 20.0)
  end
  begin
     id 18 
     name lhumerus
     direction 1 -4.48967e-011 -2.79996e-027   
     length 5.64147   
     axis 180 -30 -90   XYZ
    dof rx ry rz
    limits (-60.0 90.0)
           (-90.0 90.0)
           (-90.0 90.0)
  end
  begin
     id 19
     name lradius
     direction 1 -4.48976e-011 -9.5122e-027   
     length 2.86444   
     axis 180 -30 -90   XYZ
    dof rx
    limits (-10.0 170.0)
  end
  begin
     id 20
     name lwrist
     direction 1 -4.48983e-011 -1.24047e-026   
     length 1.43222   
     axis 9.05591e-015 90 90   XYZ
    dof ry
    limits (-180.0 0.0)
 end
  begin
     id 21 
     name lhand
     direction 1 -4.4892e-011 -2.48094e-026   
     length 0.722123   
     axis 1.58305e-014 90 90   XYZ
    dof rx rz
    limits (-90.0 90.0)
           (-45.0 45.0)
  end
  begin
     id 22 
     name lfingers
     direction 1 -4.48895e-011 -4.96187e-026   
     length 0.582194   
     axis 3.1661e-014 90 90   XYZ
    dof rx
    limits (0.0 90.0)
  end
  begin
     id 23
     name lthumb
     direction 0.707107 -6.34961e-011 0.707107   
     length 0.835918   
     axis -90 45 2.85299e-015   XYZ
    dof rx rz
    limits (-45.0 45.0)
           (-45.0 45.0)
  end
  begin
     id 24 
     name rclavicle
     direction -0.932635 0.324218 -0.15835   
     length 3.65819  
     axis 0 0 0   XYZ 
    dof ry rz
    limits (-10.0 20.0)
           (-20.0 0.0)
  end
  begin
     id 25 
     name rhumerus
     direction -1 -4.48965e-011 -4.02296e-027  
     length 5.44729   
     axis 180 30 90   XYZ
    dof rx ry rz
    limits (-90.0 60.0)
           (-90.0 90.0)
           (-90.0 90.0)
  end
  begin
     id 26 
     name rradius
     direction -1 -4.48957e-011 -8.81087e-027   
     length 3.08821   
     axis 180 30 90   XYZ
    dof rx
    limits (-10.0 170.0)
  end
  begin
     id 27 
     name rwrist
     direction -1 -4.49015e-011 -1.24047e-026   
     length 1.5441   
     axis 9.05591e-015 -90 -90   XYZ
    dof ry
    limits (-180.0 0.0)
  end
  begin
     id 28
     name rhand
     direction -1 -4.4891e-011 -2.48094e-026   
     length 0.821049   
     axis 1.58305e-014 -90 -90   XYZ
    dof rx rz
    limits (-90.0 90.0)
           (-45.0 45.0)
  end
  begin
     id 29
     name rfingers
     direction -1 -4.48985e-011 -4.96187e-026   
     length 0.661951   
     axis 3.1661e-014 -90 -90   XYZ
    dof rx
    limits (0.0 90.0)
  end
  begin
     id 30
     name rthumb
     direction -0.707107 -6.34906e-011 0.707107   
     length 0.950433   
     axis -90 -45 -2.85299e-015   XYZ
    dof rx rz
    limits (-45.0 45.0)
           (-45.0 45.0)
  end
:hierarchy
  begin
    root lhipjoint rhipjoint lowerback
    lhipjoint lfemur
    lfemur ltibia
    ltibia lfoot
    lfoot ltoes
    rhipjoint rfemur
    rfemur rtibia
    rtibia rfoot
    rfoot rtoes
    lowerback upperback
    upperback thorax
    thorax lowerneck lclavicle rclavicle
    lowerneck upperneck
    upperneck head
    lclavicle lhumerus
    lhumerus lradius
    lradius lwrist
    lwrist lhand lthumb
    lhand lfingers
    rclavicle rhumerus
    rhumerus rradius
    rradius rwrist
    rwrist rhand rthumb
    rhand rfingers
  end

#!OML:ASF F:\VICON\USERDATA\INSTALL\rory3\rory3.ASF
:FULLY-SPECIFIED
:DEGREES
2229
root 3.41002 17.7566 0.375331 -34.6734 88.2498 -35.2733
lowerback 2.48243 0.162956 3.2591
upperback 0.0448686 0.302689 -0.656846
thorax -1.32559 0.12922 -2.51339
lowerneck -2.88376 -5.23242 -5.18569
upperneck 3.47242 -7.07316 7.95117
head 2.15415 -3.42338 3.29869
rclavicle -1.27036e-015 -2.5842e-015
rhumerus -34.7317 -7.59549 -82.9405
rradius 30.9447
rwrist 12.7491
rhand -8.12275 6.80633
rfingers 7.12502
rthumb 17.7907 -22.3999
lclavicle -1.27036e-015 -2.5842e-015
lhumerus -33.7246 -7.05624 87.5333
lradius 30.5336
lwrist 31.4411
lhand -10.4791 11.2626
lfingers 7.12502
lthumb 15.5222 40.6596
rfemur 0.623754 1.61649 19.8772
rtibia 13.66
rfoot -15.8417 -0.871081
rtoes -7.461
lfemur 0 0 0
ltibia 0
lfoot 0 0
ltoes 0
2230
root 3.41081 17.7592 0.37541 -33.3836 88.2601 -33.9901
lowerback 2.47578 0.164711 3.20361
upperback 0.0357108 0.303252 -0.659459
thorax -1.33149 0.129599 -2.4849
lowerneck -2.87467 -5.22451 -5.19185
upperneck 3.48904 -7.06358 7.95487
head 2.15778 -3.41858 3.3017
rclavicle -2.85132e-015 2.98177e-015
rhumerus -34.7312 -7.53558 -82.9426
rradius 30.9462
rwrist 12.7276
rhand -8.14658 6.818
rfingers 7.12502
rthumb 17.7678 -22.3903
lclavicle -2.85132e-015 2.98177e-015
lhumerus -33.7062 -7.03134 87.5286
lradius 30.4803
lwrist 31.3584
lhand -10.3551 11.1383
lfingers 7.12502
lthumb 15.6417 40.526
rfemur 0.537036 1.6116 19.8275
rtibia 13.7791
rfoot -15.9027 -0.84008
rtoes -7.18865
lfemur 0 0 0
ltibia 0
lfoot 0 0
ltoes 0
2231
root 3.41226 17.7657 0.375711 -33.716 88.2753 -34.313
lowerback 2.47893 0.153856 3.18761
upperback 0.0464346 0.288547 -0.644207
thorax -1.32337 0.122703 -2.45967
lowerneck -2.96808 -5.23247 -5.17516
upperneck 3.56183 -7.07331 7.88862
head 2.19551 -3.42201 3.27286
rclavicle -4.36394e-015 5.1684e-015
rhumerus -34.7236 -7.39865 -82.9626
rradius 30.9895
rwrist 12.6418
rhand -8.18476 6.73181
rfingers 7.12502
rthumb 17.7311 -22.4798
lclavicle -4.36394e-015 5.1684e-015
lhumerus -33.6874 -7.04009 87.5546
lradius 30.4967
lwrist 31.3489
lhand -10.3525 11.2139
lfingers 7.12502
lthumb 15.6442 40.6013
rfemur 0.460262 1.63739 19.8259
rtibia 13.8979
rfoot -15.9239 -0.924497
rtoes -6.5152
lfemur 0 0 0
ltibia 0
lfoot 0 0
ltoes 0
2232
root 3.41295 17.7712 0.375888 -31.7342 88.3209 -32.3163
lowerback 2.48795 0.148579 3.12956
upperback 0.0551893 0.279703 -0.671362
thorax -1.32014 0.118759 -2.45469
lowerneck -2.98566 -5.22422 -5.19866
upperneck 3.56691 -7.06203 7.91489
head 2.20208 -3.41572 3.28644
rclavicle -3.03147e-015 3.97569e-015
rhumerus -34.6805 -7.46833 -82.9444
rradius 30.9241
rwrist 12.7663
rhand -8.18389 6.78871
rfingers 7.12502
rthumb 17.7319 -22.4228
lclavicle -3.03147e-015 3.97569e-015
lhumerus -33.6772 -7.01506 87.5421
lradius 30.4826
lwrist 31.2824
lhand -10.3873 11.1598
lfingers 7.12502
lthumb 15.6107 40.5498
rfemur 0.447043 1.71677 19.7512
rtibia 13.9336
rfoot -15.9444 -1.06141
rtoes -6.47062
lfemur 0 0 0
ltibia 0
lfoot 0 0
ltoes 0
2233
root 3.4127 17.7686 0.376285 -31.5047 88.3147 -32.1162
lowerback 2.45408 0.149894 3.14089
upperback 0.0432528 0.28055 -0.685527
thorax -1.31323 0.118997 -2.47552
lowerneck -2.92066 -5.20925 -5.16099
upperneck 3.51906 -7.04262 7.90751
head 2.17068 -3.4075 3.27922
rclavicle -2.23012e-015 -9.93923e-016
rhumerus -34.67 -7.4625 -82.966
rradius 30.8868
rwrist 12.7683
rhand -8.22323 6.89707
rfingers 7.12502
rthumb 17.694 -22.3179
lclavicle -2.23012e-015 -9.93923e-016
lhumerus -33.6871 -7.06477 87.5317
lradius 30.4881
lwrist 31.3009
lhand -10.3692 11.1641
lfingers 7.12502
lthumb 15.628 40.5529
rfemur 0.462384 1.65282 19.7493
rtibia 13.8663
rfoot -15.8833 -1.06284
rtoes -7.19323
lfemur 0 0 0
ltibia 0
lfoot 0 0
ltoes 0
2234
root 3.41094 17.7604 0.376585 -33.6304 88.2766 -34.2663
lowerback 2.45064 0.140459 3.20041
upperback 0.0245364 0.270158 -0.652405
thorax -1.33112 0.112931 -2.47458
lowerneck -2.90805 -5.20588 -5.16041
upperneck 3.53394 -7.03828 7.8807
head 2.17158 -3.40609 3.27026
rclavicle -4.63727e-015 -2.68359e-015
rhumerus -34.6819 -7.32916 -82.9851
rradius 30.912
rwrist 12.6752
rhand -8.23497 6.92953
rfingers 7.12502
rthumb 17.6827 -22.2864
lclavicle -4.63727e-015 -2.68359e-015
lhumerus -33.6789 -6.99606 87.5275
lradius 30.4604
lwrist 31.3332
lhand -10.3425 11.1722
lfingers 7.12502
lthumb 15.6538 40.5589
rfemur 0.531366 1.60542 19.8363
rtibia 13.755
rfoot -15.8579 -0.969182
rtoes -7.21097
lfemur 0 0 0
ltibia 0
lfoot 0 0
ltoes 0
